<svg width="101" height="24" viewBox="0 0 101 24" fill="none" xmlns="http://www.w3.org/2000/svg">
    <path fill-rule="evenodd" clip-rule="evenodd" d="M101 3.58333V6.87681H94.0471V10.1703H101V13.4638H94.0471V17.1232H101V20.4167H90.7536V3.58333H101ZM18.663 3.94927L22.7085 12.9149L26.7138 3.94927H30.0026L24.5181 16.0254V20.4167H20.8587V16.0254L15.3696 3.94927H18.663ZM50.8659 3.94927V17.1232H57.087V20.4167H47.5725V3.94927H50.8659ZM65.5036 3.58333C70.152 3.58333 73.9203 7.3516 73.9203 12C73.9203 16.6484 70.152 20.4167 65.5036 20.4167C60.8552 20.4167 57.087 16.6484 57.087 12C57.087 7.3516 60.8552 3.58333 65.5036 3.58333ZM78.3116 3.58333V14.9275L85.6304 3.58333H88.9239V20.4167H85.6304V9.4384L78.3116 20.4167H75.0181V3.58333H78.3116ZM8.19603 3.58333C11.1574 3.58333 13.8432 5.17617 15.2955 7.70063L15.3696 7.83204L12.5216 9.43475C11.6586 7.86953 10.016 6.87681 8.19603 6.87681C5.46738 6.87681 3.26001 9.09122 3.26001 11.817C3.26001 14.5428 5.46738 16.7572 8.19603 16.7572C9.87949 16.7572 11.414 15.9087 12.3205 14.5323L12.3873 14.428L15.1455 16.1837C13.6571 18.5703 11.0514 20.0507 8.19603 20.0507C3.67204 20.0507 0 16.367 0 11.817C0 7.26708 3.67204 3.58333 8.19603 3.58333ZM38.2033 3.58333C41.1646 3.58333 43.8504 5.17617 45.3028 7.70063L45.3768 7.83204L42.5289 9.43475C41.6658 7.86953 40.0232 6.87681 38.2033 6.87681C35.4746 6.87681 33.2673 9.09122 33.2673 11.817C33.2673 14.5428 35.4746 16.7572 38.2033 16.7572C39.8867 16.7572 41.4213 15.9087 42.3278 14.5323L42.3946 14.428L45.1528 16.1837C43.6643 18.5703 41.0586 20.0507 38.2033 20.0507C33.6793 20.0507 30.0072 16.367 30.0072 11.817C30.0072 7.26708 33.6793 3.58333 38.2033 3.58333ZM65.5036 6.87681C62.6742 6.87681 60.3804 9.17054 60.3804 12C60.3804 14.8295 62.6742 17.1232 65.5036 17.1232C68.3331 17.1232 70.6268 14.8295 70.6268 12C70.6268 9.17054 68.3331 6.87681 65.5036 6.87681Z" fill="white"/>
</svg>
