<svg width="569" height="294" viewBox="0 0 569 294" fill="none" xmlns="http://www.w3.org/2000/svg">
<path fill-rule="evenodd" clip-rule="evenodd" d="M188.412 137.313C188.985 137.313 189.45 137.778 189.45 138.35C189.45 138.902 189.018 139.354 188.473 139.385L188.412 139.387H143.792C117.998 139.387 99.6802 159.878 102.466 185.383L102.557 186.157L111.003 253.412C111.075 253.981 110.671 254.499 110.102 254.57C109.554 254.639 109.051 254.267 108.952 253.731L108.943 253.67L100.497 186.415C97.1289 159.586 116.101 137.754 142.976 137.32L143.792 137.313H188.412Z" fill="#434343"/>
<path fill-rule="evenodd" clip-rule="evenodd" d="M219.032 115.621C219.47 115.556 219.901 115.775 220.105 116.167L221.316 118.481C221.36 118.565 221.393 118.655 221.412 118.749L221.425 118.819L222.879 129.256C222.912 129.495 222.861 129.736 222.736 129.94L222.696 130L217.158 137.776C216.825 138.243 216.177 138.352 215.71 138.02C215.26 137.701 215.142 137.09 215.429 136.629L215.465 136.574L220.764 129.134L219.392 119.283L218.607 117.783L218.496 117.8C205.004 119.906 196.56 123.751 192.691 129.032L192.573 129.196C189.209 133.927 189.468 139.869 192.975 146.873C193.282 147.486 192.919 148.222 192.245 148.354C169.45 152.799 150.899 171.885 139.831 199.289C129.86 223.978 127.617 252.088 134.074 270.128L135.123 273.086C137.343 279.316 138.689 282.341 140.692 285.031C143.267 288.487 146.459 290.238 150.864 290.28C151.437 290.285 151.898 290.754 151.892 291.326C151.887 291.899 151.418 292.359 150.844 292.353C145.763 292.306 141.975 290.226 139.026 286.268L138.859 286.041C136.841 283.27 135.473 280.213 133.347 274.286L132.162 270.948C132.147 270.907 132.133 270.866 132.118 270.825C125.474 252.26 127.757 223.64 137.905 198.513C148.986 171.078 167.503 151.705 190.437 146.613L190.538 146.59L190.468 146.437C187.313 139.447 187.24 133.25 190.764 128.159L190.879 127.996C195.165 121.966 204.402 117.793 219.032 115.621Z" fill="#434343"/>
<path fill-rule="evenodd" clip-rule="evenodd" d="M232.096 165.135C232.096 165.066 232.096 164.997 232.096 164.928C233.723 165.1 235.316 165.1 236.873 163.787C240.681 160.504 242.031 159.502 242.031 159.502C242.031 159.502 242.377 159.916 243 160.608C243.762 159.225 244.523 157.774 245.319 156.322C228.877 143.604 216.312 137.175 216.312 137.175L215.377 136.519L209.354 143.88C209.354 143.88 219.185 150.619 232.096 165.135Z" fill="#FE7624"/>
<path fill-rule="evenodd" clip-rule="evenodd" d="M311.573 284.439C311.573 284.439 285.265 213.797 288.623 191.92C290.458 179.962 287.585 166.448 283.638 155.976L276.092 156.46L267.058 177.75C267.646 177.888 268.235 178.026 268.823 178.095C268.823 178.095 268.477 180.342 267.611 185.457C267.023 188.878 268.027 189.258 268.788 191.643C269.792 193.233 270.554 195.03 269.723 197.829C269.446 198.728 268.788 207.299 267.3 218.912C270.069 224.752 272.7 230.973 275.192 237.609C291.15 280.084 289.488 284.715 289.488 284.715L311.573 284.439Z" fill="#FE7624"/>
<path fill-rule="evenodd" clip-rule="evenodd" d="M278.398 118.004C278.584 117.462 279.175 117.173 279.717 117.359C290.236 120.956 297.578 126.638 302.368 134.056C305.841 139.433 307.689 145.029 308.914 152.1L308.964 152.393L309.665 152.927C343.178 178.553 367.125 207.447 383.037 237.763L383.522 238.691C389.504 250.218 394.011 261.375 397.249 271.918C399.525 279.331 400.939 285.634 401.7 290.607C401.786 291.173 401.397 291.702 400.83 291.788C400.263 291.875 399.733 291.486 399.647 290.92L399.566 290.402C398.802 285.607 397.43 279.583 395.263 272.526C392.061 262.099 387.601 251.059 381.678 239.645C365.747 208.949 341.526 179.685 307.38 153.795C307.168 153.635 307.026 153.4 306.983 153.138C305.801 145.989 304.028 140.452 300.623 135.18C296.087 128.156 289.124 122.768 279.044 119.321C278.502 119.135 278.213 118.545 278.398 118.004Z" fill="#434343"/>
<path fill-rule="evenodd" clip-rule="evenodd" d="M294.939 186.84C295.68 186.867 296.264 187.471 296.273 188.203L296.272 188.293L296.264 188.521C296.258 188.731 296.252 188.978 296.247 189.261C296.091 197.046 296.483 206.469 297.879 215.483C298.512 219.565 299.325 223.296 300.332 226.596C300.555 227.326 300.143 228.099 299.412 228.321C298.68 228.544 297.906 228.132 297.683 227.402C296.634 223.967 295.794 220.11 295.143 215.906C293.744 206.879 293.335 197.498 293.47 189.656L293.49 188.672L293.505 188.171C293.532 187.431 294.137 186.848 294.87 186.839L294.939 186.84Z" fill="#434343"/>
<path fill-rule="evenodd" clip-rule="evenodd" d="M306.969 152.693C307.212 154.179 307.419 155.527 307.592 156.702C309.704 170.457 305.169 179.616 302.158 185.941C310.223 180.238 315.692 169.386 318.427 161.126C315.138 158.499 310.604 155.389 306.969 152.693Z" fill="#434343"/>
<path fill-rule="evenodd" clip-rule="evenodd" d="M192.877 146.714C187.234 147.855 177.958 150.689 171.242 155.285C175.915 157.843 199.073 171.667 217.973 179.962C218.111 179.892 219.15 178.164 219.669 177.473C209.215 169.213 198.208 157.393 192.877 146.714Z" fill="#434343"/>
<path fill-rule="evenodd" clip-rule="evenodd" d="M207.835 90.6584C208.388 90.508 208.959 90.8339 209.109 91.3864C209.255 91.9192 208.956 92.4681 208.439 92.6415L208.257 92.6953C208.202 92.7122 208.133 92.7342 208.051 92.7612C207.768 92.8541 207.452 92.9694 207.109 93.1081C206.131 93.5049 205.152 94.0061 204.244 94.6163C200.422 97.1858 199.048 100.707 201.396 105.662C202.87 108.775 204.929 110.097 207.557 110.084C209.65 110.074 211.976 109.237 214.518 107.796C215.016 107.513 215.65 107.687 215.933 108.185C216.217 108.683 216.042 109.316 215.543 109.599C212.719 111.2 210.093 112.145 207.567 112.158C204.125 112.174 201.334 110.383 199.519 106.549C196.687 100.575 198.476 95.9946 203.084 92.8963C204.121 92.1995 205.224 91.6341 206.328 91.1867C206.994 90.9168 207.519 90.7442 207.835 90.6584Z" fill="#434343"/>
<path fill-rule="evenodd" clip-rule="evenodd" d="M241.218 43.5909C239.061 44.0228 237.212 44.5369 235.673 45.0554L235.465 45.1261C222.387 49.5712 214.481 57.3606 210.9 67.5166C208.277 74.9596 208.197 82.8578 209.63 90.2276C209.81 91.1541 210.002 91.9964 210.196 92.7444L210.281 93.068L210.339 93.2816C210.377 93.4165 210.411 93.5364 210.441 93.6406L210.497 93.8289C210.536 94.5034 211.21 94.9678 211.862 94.7506L215.42 93.5665L215.468 93.6036C218.432 95.9179 226.396 105.931 228.961 110.804C229.245 111.344 229.933 111.523 230.445 111.191L230.751 110.999L231.066 110.806C231.178 110.738 231.297 110.666 231.423 110.591L231.684 110.436C232.717 109.826 233.933 109.144 235.323 108.41C239.301 106.307 243.869 104.203 248.953 102.238L249.605 101.988C253.744 100.413 258.049 99.0014 262.501 97.7921L263.199 97.6049L263.931 97.4441C264.097 97.4082 264.272 97.3707 264.455 97.3319L264.831 97.2525C266.121 96.9819 267.489 96.7113 268.874 96.4588C269.976 96.2579 271.044 96.077 272.06 95.9208L272.755 95.8167C275.262 95.4519 277.288 95.2723 278.65 95.3215C279.29 95.3447 279.798 94.7906 279.718 94.1568C278.066 80.9574 274.934 67.453 270.446 56.0954C267.009 47.3869 260.15 43.2849 251.165 42.7914C247.913 42.6128 244.556 42.9226 241.218 43.5909ZM251.051 44.8619C259.284 45.3141 265.403 48.9736 268.514 56.8561L268.717 57.3736C272.824 67.9267 275.764 80.3493 277.422 92.6069L277.508 93.2517L277.481 93.2528C275.956 93.3059 274.019 93.5219 271.744 93.8713C270.708 94.0305 269.621 94.2147 268.501 94.4189C267.272 94.6429 266.058 94.8808 264.898 95.1204L264.022 95.3037C263.775 95.3562 263.542 95.4063 263.325 95.4535L262.708 95.5899L262.671 95.5991C257.658 96.932 252.827 98.518 248.204 100.304C243.04 102.299 238.399 104.437 234.351 106.577L233.793 106.874C232.603 107.512 231.546 108.108 230.626 108.651L230.26 108.869L230.222 108.804C226.894 103.11 218.865 93.204 216.125 91.5341L216.064 91.4996C215.815 91.3702 215.524 91.3464 215.256 91.4355L212.261 92.4319C212.06 91.6761 211.858 90.8044 211.669 89.8326C210.301 82.7936 210.376 75.2494 212.86 68.205C216.194 58.7456 223.51 51.4763 235.764 47.2163L236.137 47.0882C237.639 46.5728 239.471 46.0558 241.627 45.6241C244.804 44.9879 247.991 44.6938 251.051 44.8619Z" fill="#434343"/>
<path fill-rule="evenodd" clip-rule="evenodd" d="M215.254 91.4013C215.545 91.3042 215.864 91.3401 216.125 91.4995C218.838 93.1526 226.734 102.878 230.121 108.597L230.26 108.834L230.626 108.617L231.06 108.362C232.022 107.803 233.121 107.193 234.351 106.542C238.399 104.403 243.04 102.265 248.204 100.27C252.607 98.5684 257.198 97.0488 261.956 95.7566L262.671 95.5644L263.163 95.4538L264.018 95.2688L264.399 95.1881C265.703 94.9136 267.085 94.639 268.487 94.3826C269.452 94.2061 270.392 94.0446 271.297 93.9011L271.746 93.8309C274.739 93.3705 277.148 93.1426 278.803 93.2149C279.28 93.2358 279.682 93.5795 279.775 94.0474L279.824 94.3016L279.92 94.8382C279.943 94.9666 279.966 95.1025 279.99 95.2455L280.069 95.7312C280.2 96.5579 280.331 97.4703 280.453 98.4567C281.18 104.291 281.388 110.345 280.759 116.022C280.737 116.227 280.713 116.431 280.688 116.634C280.618 117.202 280.1 117.607 279.531 117.537C278.962 117.468 278.557 116.95 278.626 116.382C278.65 116.187 278.673 115.991 278.695 115.794C279.303 110.301 279.101 104.4 278.392 98.7126L278.32 98.1442C278.209 97.305 278.095 96.5271 277.979 95.8191L277.889 95.2776L277.784 95.2797C276.387 95.311 274.517 95.5089 272.294 95.8451L272.062 95.8804C271.041 96.0374 269.969 96.2198 268.861 96.4223C267.652 96.6435 266.456 96.8787 265.313 97.1156L264.272 97.3351L263.434 97.5178L263.182 97.5741L262.501 97.7575C258.049 98.9668 253.744 100.378 249.605 101.953L248.953 102.204C243.869 104.168 239.301 106.272 235.323 108.375L234.776 108.666C233.702 109.242 232.739 109.783 231.893 110.279L231.423 110.557C231.297 110.632 231.178 110.703 231.066 110.771L230.523 111.107C230.49 111.128 230.464 111.145 230.445 111.157C229.933 111.489 229.245 111.309 228.961 110.769C226.421 105.945 218.591 96.083 215.558 93.6407L215.42 93.5322L209.702 95.4445L211.625 99.3286L213.1 102.293C214.206 104.508 215.307 106.7 216.376 108.815L217.857 111.734C220.984 117.871 223.35 122.346 224.644 124.512C228.781 131.408 231.218 133.462 240.571 137.142C243.713 138.356 247.718 139.042 251.826 139.042C252.4 139.042 252.865 139.506 252.865 140.078C252.865 140.651 252.4 141.115 251.826 141.115C247.471 141.115 243.213 140.386 239.815 139.073L238.953 138.731C230.05 135.154 227.221 132.749 223.122 126.007L222.862 125.576C221.552 123.385 219.221 118.979 216.136 112.93L215.231 111.15C213.823 108.375 212.35 105.442 210.872 102.477L209.604 99.9268L207.313 95.295C207.046 94.7506 207.302 94.0994 207.857 93.8766L207.916 93.8551L215.254 91.4013Z" fill="#434343"/>
<path fill-rule="evenodd" clip-rule="evenodd" d="M209.146 97.9834C209.146 97.9834 202.534 90.3109 197.757 81.1523C193.257 72.5466 195.126 61.8674 202.569 55.6464C208.8 50.4277 214.753 51.8102 214.753 51.8102C214.753 51.8102 203.988 40.889 212.469 26.7191C215.446 21.7423 220.396 18.148 226.107 16.9038C240.023 13.8624 247.223 24.438 247.223 24.438C247.223 24.438 255.219 -6.39016 289.557 2.11179C293.019 2.97581 297.588 6.63925 300.011 9.26587C314.653 25.1984 287.1 55.2663 270.346 61.2798C251.965 67.9155 240.126 67.5699 232.892 64.4594C238.119 66.0492 238.292 95.3222 209.146 97.9834Z" fill="#434343"/>
<path fill-rule="evenodd" clip-rule="evenodd" d="M261.723 87.1509C262.416 86.8901 263.188 87.2208 263.48 87.8912L263.507 87.9572L270.015 105.203C270.349 106.09 269.712 107.035 268.776 107.072L268.712 107.073L262.031 107.038C261.266 107.034 260.65 106.412 260.654 105.649C260.657 104.908 261.243 104.307 261.976 104.275L262.045 104.273L266.713 104.298L260.916 88.932C260.654 88.2398 260.986 87.4698 261.657 87.1777L261.723 87.1509Z" fill="#434343"/>
<path fill-rule="evenodd" clip-rule="evenodd" d="M258.646 120.621C260.462 120.621 261.934 119.151 261.934 117.337C261.934 115.524 260.462 114.054 258.646 114.054C256.829 114.054 255.357 115.524 255.357 117.337C255.357 119.151 256.829 120.621 258.646 120.621Z" fill="#434343"/>
<path fill-rule="evenodd" clip-rule="evenodd" d="M269.898 89.8376C270.899 89.5875 271.395 88.1238 271.005 86.5684C270.615 85.013 269.488 83.9549 268.486 84.205C267.485 84.4552 266.989 85.9189 267.379 87.4743C267.768 89.0297 268.896 90.0878 269.898 89.8376Z" fill="#434343"/>
<path fill-rule="evenodd" clip-rule="evenodd" d="M252.281 93.9195C253.283 93.6694 253.779 92.2057 253.389 90.6503C252.999 89.0949 251.871 88.0368 250.87 88.2869C249.868 88.5371 249.373 90.0008 249.762 91.5562C250.152 93.1116 251.28 94.1697 252.281 93.9195Z" fill="#434343"/>
<path fill-rule="evenodd" clip-rule="evenodd" d="M247.09 73.6935C247.851 73.6204 248.528 74.1772 248.601 74.9372C248.674 75.6972 248.116 76.3725 247.355 76.4456C245.456 76.6279 243.975 77.3889 242.827 78.5547C242.362 79.0281 241.984 79.5367 241.69 80.0423L241.612 80.1813C241.502 80.3795 241.431 80.5294 241.397 80.6139L241.387 80.6396C241.116 81.3536 240.316 81.7132 239.601 81.4427C238.886 81.1723 238.526 80.3742 238.797 79.6603C238.883 79.4328 239.045 79.0846 239.295 78.6551C239.7 77.9587 240.214 77.2654 240.852 76.617C242.437 75.0065 244.511 73.9411 247.09 73.6935Z" fill="#434343"/>
<path fill-rule="evenodd" clip-rule="evenodd" d="M264.413 68.8844C265.673 68.4477 266.975 68.2585 268.249 68.4751C269.821 68.7424 271.154 69.6157 272.082 71.1363C272.48 71.7883 272.273 72.6389 271.62 73.0361C270.967 73.4332 270.115 73.2266 269.717 72.5745C269.215 71.7513 268.581 71.3362 267.784 71.2007C267.04 71.0741 266.179 71.1993 265.321 71.4964C265.099 71.5735 264.896 71.6557 264.718 71.7368L264.563 71.8108L264.534 71.8255C263.863 72.1904 263.022 71.9426 262.656 71.272C262.291 70.6013 262.539 69.7618 263.211 69.3969L263.33 69.3344C263.587 69.204 263.956 69.0429 264.413 68.8844Z" fill="#434343"/>
<path fill-rule="evenodd" clip-rule="evenodd" d="M468.692 195.237H334.107C332.342 195.237 330.819 196.447 330.404 198.175L311.677 277.25H262.904C262.904 277.25 260.204 291.178 275.954 291.178C283.95 291.178 447.784 291.178 447.784 291.178C449.55 291.178 451.073 289.968 451.488 288.24L472.396 199.903C472.95 197.518 471.15 195.237 468.692 195.237Z" fill="#434343"/>
<path fill-rule="evenodd" clip-rule="evenodd" d="M415.281 78.1455H414.208C413.239 78.1455 412.477 77.3852 412.477 76.4175V73.6872C412.477 72.7194 413.239 71.9591 414.208 71.9591H415.281C416.25 71.9591 417.012 72.7194 417.012 73.6872V76.4175C417.012 77.3852 416.25 78.1455 415.281 78.1455Z" fill="#FE7624"/>
<path fill-rule="evenodd" clip-rule="evenodd" d="M409.015 78.1455H381.392C380.423 78.1455 379.662 77.3852 379.662 76.4175V73.6872C379.662 72.7194 380.423 71.9591 381.392 71.9591H409.015C409.985 71.9591 410.746 72.7194 410.746 73.6872V76.4175C410.746 77.3852 409.985 78.1455 409.015 78.1455Z" fill="#434343"/>
<path fill-rule="evenodd" clip-rule="evenodd" d="M411.854 106.866H381.427C380.458 106.866 379.696 106.105 379.696 105.138V102.407C379.696 101.44 380.458 100.679 381.427 100.679H411.854C412.823 100.679 413.585 101.44 413.585 102.407V105.138C413.585 106.105 412.789 106.866 411.854 106.866Z" fill="#434343"/>
<path fill-rule="evenodd" clip-rule="evenodd" d="M439.096 97.2922H389.977C389.008 97.2922 388.246 96.5319 388.246 95.5642V92.8339C388.246 91.8662 389.008 91.1058 389.977 91.1058H439.096C440.066 91.1058 440.827 91.8662 440.827 92.8339V95.5642C440.827 96.5319 440.066 97.2922 439.096 97.2922Z" fill="#FE7624"/>
<path fill-rule="evenodd" clip-rule="evenodd" d="M470.423 97.2922H445.5C444.531 97.2922 443.769 96.5319 443.769 95.5642V92.8339C443.769 91.8662 444.531 91.1058 445.5 91.1058H470.423C471.392 91.1058 472.154 91.8662 472.154 92.8339V95.5642C472.154 96.5319 471.392 97.2922 470.423 97.2922Z" fill="#FE7624"/>
<path fill-rule="evenodd" clip-rule="evenodd" d="M480.046 87.7534H478.973C478.004 87.7534 477.242 86.9931 477.242 86.0254V83.2951C477.242 82.3274 478.004 81.567 478.973 81.567H480.046C481.016 81.567 481.777 82.3274 481.777 83.2951V86.0254C481.777 86.9585 481.016 87.7534 480.046 87.7534Z" fill="#434343"/>
<path fill-rule="evenodd" clip-rule="evenodd" d="M432.312 87.7188H381.392C380.423 87.7188 379.662 86.9585 379.662 85.9908V83.2605C379.662 82.2928 380.423 81.5325 381.392 81.5325H432.312C433.281 81.5325 434.042 82.2928 434.042 83.2605V85.9908C434.042 86.9585 433.281 87.7188 432.312 87.7188Z" fill="#434343"/>
<path fill-rule="evenodd" clip-rule="evenodd" d="M448.373 78.1455H420.75C419.781 78.1455 419.019 77.3852 419.019 76.4175V73.6872C419.019 72.7194 419.781 71.9591 420.75 71.9591H448.373C449.342 71.9591 450.104 72.7194 450.104 73.6872V76.4175C450.104 77.3852 449.307 78.1455 448.373 78.1455Z" fill="#434343"/>
<path fill-rule="evenodd" clip-rule="evenodd" d="M473.088 87.7534H438.196C437.227 87.7534 436.465 86.9931 436.465 86.0254V83.2605C436.465 82.2928 437.227 81.5325 438.196 81.5325H473.088C474.058 81.5325 474.819 82.2928 474.819 83.2605V86.0254C474.819 86.9585 474.058 87.7534 473.088 87.7534Z" fill="#FE7624"/>
<path fill-rule="evenodd" clip-rule="evenodd" d="M409.015 140.148H381.392C380.423 140.148 379.662 139.387 379.662 138.42V135.689C379.662 134.722 380.423 133.961 381.392 133.961H409.015C409.985 133.961 410.746 134.722 410.746 135.689V138.42C410.746 139.387 409.985 140.148 409.015 140.148Z" fill="#434343"/>
<path fill-rule="evenodd" clip-rule="evenodd" d="M411.854 168.867H381.427C380.458 168.867 379.696 168.107 379.696 167.139V164.409C379.696 163.441 380.458 162.681 381.427 162.681H411.854C412.823 162.681 413.585 163.441 413.585 164.409V167.139C413.585 168.073 412.789 168.867 411.854 168.867Z" fill="#434343"/>
<path fill-rule="evenodd" clip-rule="evenodd" d="M439.096 159.294H389.977C389.008 159.294 388.246 158.534 388.246 157.566V154.836C388.246 153.868 389.008 153.108 389.977 153.108H439.096C440.066 153.108 440.827 153.868 440.827 154.836V157.566C440.827 158.534 440.066 159.294 439.096 159.294Z" fill="#FE7624"/>
<path fill-rule="evenodd" clip-rule="evenodd" d="M470.423 159.294H445.5C444.531 159.294 443.769 158.534 443.769 157.566V154.836C443.769 153.868 444.531 153.108 445.5 153.108H470.423C471.392 153.108 472.154 153.868 472.154 154.836V157.566C472.154 158.534 471.392 159.294 470.423 159.294Z" fill="#FE7624"/>
<path fill-rule="evenodd" clip-rule="evenodd" d="M480.046 149.755H478.973C478.004 149.755 477.242 148.995 477.242 148.027V145.297C477.242 144.329 478.004 143.569 478.973 143.569H480.046C481.016 143.569 481.777 144.329 481.777 145.297V148.027C481.777 148.96 481.016 149.755 480.046 149.755Z" fill="#434343"/>
<path fill-rule="evenodd" clip-rule="evenodd" d="M487.938 140.148H486.865C485.896 140.148 485.135 139.387 485.135 138.42V135.689C485.135 134.722 485.896 133.961 486.865 133.961H487.938C488.908 133.961 489.669 134.722 489.669 135.689V138.42C489.669 139.387 488.908 140.148 487.938 140.148Z" fill="#434343"/>
<path fill-rule="evenodd" clip-rule="evenodd" d="M432.312 149.721H381.392C380.423 149.721 379.662 148.96 379.662 147.993V145.262C379.662 144.295 380.423 143.534 381.392 143.534H432.312C433.281 143.534 434.042 144.295 434.042 145.262V147.993C434.042 148.96 433.281 149.721 432.312 149.721Z" fill="#434343"/>
<path fill-rule="evenodd" clip-rule="evenodd" d="M448.373 140.148H414.242C413.273 140.148 412.512 139.387 412.512 138.42V135.689C412.512 134.722 413.273 133.961 414.242 133.961H448.373C449.342 133.961 450.104 134.722 450.104 135.689V138.42C450.104 139.387 449.308 140.148 448.373 140.148Z" fill="#FE7624"/>
<path fill-rule="evenodd" clip-rule="evenodd" d="M481.846 140.148H454.223C453.254 140.148 452.492 139.387 452.492 138.42V135.689C452.492 134.722 453.254 133.961 454.223 133.961H481.846C482.815 133.961 483.577 134.722 483.577 135.689V138.42C483.577 139.387 482.815 140.148 481.846 140.148Z" fill="#FE7624"/>
<path fill-rule="evenodd" clip-rule="evenodd" d="M415.281 130.885H414.208C413.239 130.885 412.477 130.125 412.477 129.157V126.427C412.477 125.459 413.239 124.699 414.208 124.699H415.281C416.25 124.699 417.012 125.459 417.012 126.427V129.157C417.012 130.09 416.25 130.885 415.281 130.885Z" fill="#FE7624"/>
<path fill-rule="evenodd" clip-rule="evenodd" d="M409.015 130.885H381.392C380.423 130.885 379.662 130.125 379.662 129.157V126.427C379.662 125.459 380.423 124.699 381.392 124.699H409.015C409.985 124.699 410.746 125.459 410.746 126.427V129.157C410.746 130.09 409.985 130.885 409.015 130.885Z" fill="#434343"/>
<path fill-rule="evenodd" clip-rule="evenodd" d="M448.373 130.885H420.75C419.781 130.885 419.019 130.125 419.019 129.157V126.427C419.019 125.459 419.781 124.699 420.75 124.699H448.373C449.342 124.699 450.104 125.459 450.104 126.427V129.157C450.104 130.09 449.307 130.885 448.373 130.885Z" fill="#434343"/>
<path fill-rule="evenodd" clip-rule="evenodd" d="M473.088 149.755H438.196C437.227 149.755 436.465 148.995 436.465 148.027V145.262C436.465 144.295 437.227 143.534 438.196 143.534H473.088C474.058 143.534 474.819 144.295 474.819 145.262V148.027C474.819 148.96 474.058 149.755 473.088 149.755Z" fill="#FE7624"/>
<path fill-rule="evenodd" clip-rule="evenodd" d="M516.07 253.337C521.629 252.913 526.457 257.077 526.843 262.621C527.267 268.171 523.097 272.991 517.517 273.378C516.646 273.422 515.935 273.404 515.234 273.299C514.667 273.214 514.276 272.686 514.361 272.12C514.446 271.553 514.975 271.163 515.542 271.248C516.087 271.33 516.668 271.344 517.393 271.308C521.803 271.002 525.109 267.182 524.771 262.772C524.465 258.369 520.638 255.068 516.236 255.404C515.516 255.464 514.801 255.613 514.124 255.838C513.58 256.019 512.992 255.726 512.81 255.183C512.629 254.639 512.923 254.052 513.467 253.871C514.299 253.594 515.176 253.411 516.07 253.337Z" fill="#434343"/>
<path fill-rule="evenodd" clip-rule="evenodd" d="M478.487 239.503C478.914 239.154 479.535 239.2 479.905 239.598L479.949 239.647L492.86 255.372C493.224 255.815 493.159 256.469 492.715 256.832C492.289 257.181 491.667 257.134 491.297 256.736L491.254 256.687L478.342 240.962C477.979 240.519 478.044 239.866 478.487 239.503Z" fill="#434343"/>
<path fill-rule="evenodd" clip-rule="evenodd" d="M477.242 251.157V280.81C477.242 286.547 481.88 291.178 487.626 291.178H505.142C510.888 291.178 515.526 286.547 515.526 280.81V251.157H477.242ZM492.749 272.861C492.991 273.034 493.095 273.206 493.095 273.483C493.095 273.69 493.026 273.829 492.888 273.967C492.749 274.105 492.576 274.174 492.403 274.174C492.265 274.174 492.161 274.14 492.057 274.07L485.134 269.923C484.892 269.75 484.753 269.543 484.753 269.301C484.753 269.059 484.892 268.852 485.134 268.679L492.057 264.532C492.161 264.463 492.265 264.428 492.403 264.428C492.611 264.428 492.749 264.497 492.888 264.635C493.026 264.774 493.095 264.947 493.095 265.119C493.095 265.361 492.991 265.569 492.749 265.741L486.795 269.301L492.749 272.861ZM501.403 262.631L495.83 276.524C495.796 276.593 495.761 276.663 495.692 276.732C495.553 276.87 495.38 276.939 495.207 276.939C494.999 276.939 494.861 276.87 494.723 276.732C494.584 276.593 494.515 276.421 494.515 276.248C494.515 276.144 494.549 276.041 494.584 275.937L500.157 262.043C500.192 261.974 500.226 261.905 500.296 261.836C500.434 261.698 500.607 261.629 500.78 261.629C500.988 261.629 501.126 261.698 501.265 261.836C501.403 261.974 501.473 262.147 501.473 262.32C501.473 262.458 501.438 262.562 501.403 262.631ZM510.819 269.923L503.896 274.07C503.792 274.14 503.688 274.174 503.549 274.174C503.342 274.174 503.203 274.105 503.065 273.967C502.926 273.829 502.857 273.656 502.857 273.483C502.857 273.241 502.961 273.034 503.203 272.861L509.157 269.301L503.203 265.741C502.961 265.569 502.857 265.396 502.857 265.119C502.857 264.912 502.926 264.774 503.065 264.635C503.203 264.497 503.376 264.428 503.549 264.428C503.688 264.428 503.792 264.463 503.896 264.532L510.819 268.679C511.061 268.852 511.199 269.059 511.199 269.301C511.199 269.543 511.096 269.785 510.819 269.923Z" fill="#434343"/>
<path fill-rule="evenodd" clip-rule="evenodd" d="M83.4967 253.336C84.169 253.294 84.7692 253.304 85.3256 253.378C85.8941 253.453 86.2935 253.975 86.2177 254.542C86.1419 255.11 85.6196 255.509 85.0511 255.433C84.644 255.379 84.1738 255.372 83.6334 255.405C79.2357 255.71 75.9477 259.521 76.2551 263.942C76.5614 268.344 80.388 271.645 84.7977 271.309C85.3696 271.265 85.8686 271.693 85.9123 272.264C85.956 272.834 85.5278 273.333 84.9559 273.376C79.397 273.8 74.5693 269.636 74.1832 264.085C73.7966 258.527 77.9428 253.721 83.4967 253.336Z" fill="#434343"/>
<path fill-rule="evenodd" clip-rule="evenodd" d="M83.7 251.157V280.81C83.7 286.547 88.3384 291.178 94.0846 291.178H111.6C117.346 291.178 121.985 286.547 121.985 280.81V251.157H83.7ZM99.173 272.861C99.4153 273.034 99.5191 273.206 99.5191 273.483C99.5191 273.69 99.4499 273.829 99.3114 273.967C99.173 274.105 98.9999 274.174 98.8268 274.174C98.6884 274.174 98.5845 274.14 98.4807 274.07L91.5576 269.923C91.3153 269.75 91.1768 269.543 91.1768 269.301C91.1768 269.059 91.3153 268.852 91.5576 268.679L98.4807 264.532C98.5845 264.463 98.6884 264.428 98.8268 264.428C99.0345 264.428 99.173 264.497 99.3114 264.635C99.4499 264.774 99.5191 264.947 99.5191 265.119C99.5191 265.361 99.4153 265.569 99.173 265.741L93.2191 269.301L99.173 272.861ZM113.781 269.923L106.858 274.07C106.754 274.14 106.65 274.174 106.512 274.174C106.304 274.174 106.165 274.105 106.027 273.967C105.888 273.829 105.819 273.656 105.819 273.483C105.819 273.241 105.923 273.034 106.165 272.861L112.119 269.301L106.165 265.741C105.923 265.569 105.819 265.396 105.819 265.119C105.819 264.912 105.888 264.774 106.027 264.635C106.165 264.497 106.338 264.428 106.512 264.428C106.65 264.428 106.754 264.463 106.858 264.532L113.781 268.679C114.023 268.852 114.162 269.059 114.162 269.301C114.162 269.543 114.023 269.785 113.781 269.923Z" fill="#434343"/>
<path fill-rule="evenodd" clip-rule="evenodd" d="M142.667 229.72C143.15 229.454 143.754 229.612 144.046 230.072L144.078 230.126L148.82 238.697C149.097 239.199 148.915 239.829 148.413 240.106C147.93 240.373 147.326 240.214 147.034 239.755L147.002 239.7L142.26 231.129C141.982 230.628 142.165 229.997 142.667 229.72Z" fill="#434343"/>
<path fill-rule="evenodd" clip-rule="evenodd" d="M163.627 239.095C164.2 239.095 164.665 239.559 164.665 240.132C164.665 240.684 164.233 241.135 163.688 241.167L163.627 241.169H137.388C136.815 241.169 136.35 240.704 136.35 240.132C136.35 239.58 136.782 239.128 137.327 239.097L137.388 239.095H163.627Z" fill="#434343"/>
<path fill-rule="evenodd" clip-rule="evenodd" d="M159.992 268.057C159.611 267.677 159.126 267.469 158.538 267.469C157.984 267.469 157.499 267.677 157.084 268.057C156.703 268.437 156.496 268.921 156.496 269.508C156.496 270.061 156.703 270.545 157.084 270.96C157.465 271.34 157.949 271.548 158.538 271.548C159.092 271.548 159.576 271.34 159.992 270.96C160.373 270.58 160.58 270.096 160.58 269.508C160.58 268.921 160.407 268.437 159.992 268.057Z" fill="#434343"/>
<path fill-rule="evenodd" clip-rule="evenodd" d="M158.573 265.016C159.126 265.016 159.611 264.808 160.026 264.428C160.407 264.048 160.615 263.564 160.615 262.977C160.615 262.424 160.407 261.94 160.026 261.525C159.646 261.145 159.161 260.938 158.573 260.938C158.019 260.938 157.534 261.145 157.119 261.525C156.738 261.905 156.53 262.389 156.53 262.977C156.53 263.53 156.738 264.013 157.119 264.428C157.534 264.808 157.984 265.016 158.573 265.016Z" fill="#434343"/>
<path fill-rule="evenodd" clip-rule="evenodd" d="M159.992 277.423C160.373 277.043 160.58 276.559 160.58 275.971C160.58 275.418 160.373 274.935 159.992 274.52C159.611 274.14 159.126 273.932 158.538 273.932C157.984 273.932 157.499 274.14 157.084 274.52C156.703 274.9 156.496 275.384 156.496 275.971C156.496 276.524 156.703 277.008 157.084 277.423C157.465 277.803 157.949 278.01 158.538 278.01C159.126 278.01 159.611 277.803 159.992 277.423Z" fill="#434343"/>
<path fill-rule="evenodd" clip-rule="evenodd" d="M166.223 246.387L161.619 240.408H139.43L134.827 246.387C134.377 246.975 134.134 247.632 134.134 248.323V284.715C134.134 285.856 134.757 286.893 135.83 287.584C137.25 288.482 139.084 289.83 139.188 291.144H161.792C161.93 289.83 163.73 288.448 165.15 287.584C166.223 286.927 166.846 285.856 166.846 284.715V248.323C166.88 247.632 166.673 246.94 166.223 246.387ZM156.6 253.369L159.023 249.325C159.127 249.187 159.231 249.118 159.404 249.118C159.542 249.118 159.681 249.187 159.784 249.325L162.207 253.369C162.242 253.438 162.242 253.507 162.242 253.576C162.242 253.68 162.207 253.783 162.138 253.852C162.069 253.922 161.965 253.956 161.861 253.956C161.723 253.956 161.584 253.887 161.515 253.749L159.438 250.293L157.361 253.749C157.257 253.887 157.154 253.956 157.015 253.956C156.911 253.956 156.807 253.922 156.738 253.852C156.669 253.783 156.634 253.68 156.634 253.576C156.531 253.472 156.565 253.403 156.6 253.369ZM156.738 254.889C156.807 254.855 156.877 254.82 156.98 254.82C157.084 254.82 157.188 254.855 157.257 254.924C157.327 254.993 157.361 255.097 157.361 255.2C157.361 255.304 157.327 255.408 157.257 255.477C157.188 255.546 157.119 255.581 157.119 255.615C156.738 255.995 156.53 256.479 156.53 257.067C156.53 257.62 156.704 258.069 157.05 258.414C157.154 258.484 157.257 258.553 157.396 258.553C157.569 258.553 157.673 258.449 157.707 258.311L158.538 255.822C158.642 255.511 158.78 255.304 158.884 255.166C159.127 254.924 159.404 254.82 159.75 254.82C160.096 254.82 160.373 254.958 160.615 255.2C161.1 255.684 161.377 256.306 161.377 257.101C161.377 257.965 161.03 258.691 160.373 259.278C160.304 259.348 160.234 259.348 160.13 259.348C160.027 259.348 159.923 259.313 159.854 259.244C159.784 259.175 159.75 259.071 159.75 258.967C159.75 258.864 159.784 258.76 159.854 258.691C159.923 258.622 159.992 258.587 159.992 258.553C160.373 258.173 160.58 257.689 160.58 257.101C160.58 256.548 160.407 256.099 160.061 255.753C159.957 255.684 159.854 255.615 159.715 255.615C159.542 255.615 159.438 255.719 159.404 255.857L158.573 258.345C158.469 258.656 158.33 258.864 158.227 259.002C157.984 259.244 157.707 259.348 157.361 259.348C157.015 259.348 156.738 259.209 156.496 258.967C156.011 258.484 155.734 257.861 155.734 257.067C155.734 256.203 156.046 255.477 156.738 254.889ZM156.565 260.972C157.119 260.419 157.777 260.143 158.573 260.143C159.369 260.143 160.027 260.419 160.581 260.972C161.134 261.525 161.411 262.182 161.411 262.977C161.411 263.771 161.134 264.428 160.581 264.981C160.027 265.534 159.369 265.811 158.573 265.811C157.777 265.811 157.119 265.534 156.565 264.981C156.011 264.428 155.734 263.771 155.734 262.977C155.734 262.182 156.011 261.525 156.565 260.972ZM155.838 278.702C155.769 278.633 155.734 278.529 155.734 278.425C155.734 278.322 155.769 278.218 155.838 278.149C155.907 278.08 156.011 278.045 156.115 278.045H156.565C156.011 277.492 155.7 276.801 155.7 276.006C155.7 275.211 155.977 274.554 156.531 274.001C157.084 273.448 157.742 273.172 158.538 273.172C159.334 273.172 159.992 273.448 160.546 274.001C161.1 274.554 161.377 275.211 161.377 276.006C161.377 276.801 161.1 277.458 160.546 278.011C159.992 278.564 159.334 278.84 158.538 278.84H156.115C156.011 278.805 155.907 278.771 155.838 278.702ZM162.173 280.222L159.75 284.266C159.646 284.404 159.542 284.473 159.369 284.473C159.23 284.473 159.092 284.404 158.988 284.266L156.565 280.222C156.53 280.153 156.53 280.084 156.53 280.015C156.53 279.911 156.565 279.808 156.634 279.738C156.703 279.669 156.807 279.635 156.911 279.635C157.05 279.635 157.188 279.704 157.257 279.842L159.334 283.298L161.411 279.842C161.515 279.704 161.619 279.635 161.757 279.635C161.861 279.635 161.965 279.669 162.034 279.738C162.103 279.808 162.138 279.911 162.138 280.015C162.207 280.119 162.207 280.153 162.173 280.222ZM163.731 272.204C163.661 272.273 163.557 272.308 163.454 272.308H158.573C157.777 272.308 157.119 272.031 156.565 271.478C156.011 270.925 155.734 270.269 155.734 269.474C155.734 268.679 156.011 268.022 156.565 267.469C157.119 266.916 157.777 266.64 158.573 266.64C159.369 266.64 160.027 266.916 160.581 267.469C161.134 268.022 161.411 268.679 161.411 269.474C161.411 270.269 161.134 270.925 160.581 271.478C160.581 271.478 160.581 271.478 160.546 271.513H163.454C163.557 271.513 163.661 271.548 163.731 271.617C163.8 271.686 163.834 271.79 163.834 271.893C163.834 271.997 163.8 272.135 163.731 272.204Z" fill="#434343"/>
<path fill-rule="evenodd" clip-rule="evenodd" d="M249.319 122.094C250.827 120.041 253.526 120.586 256.278 123.426C258.956 126.194 260.678 129.868 261.629 133.859C261.762 134.416 261.418 134.975 260.86 135.108C260.302 135.241 259.742 134.897 259.609 134.34C258.736 130.679 257.166 127.329 254.784 124.867C252.803 122.822 251.546 122.569 250.994 123.321C250.321 124.236 250.41 126.32 251.406 128.317L251.469 128.439C252.914 131.231 253.318 136.729 253.107 143.532C253.089 144.104 252.61 144.554 252.037 144.536C251.464 144.518 251.013 144.04 251.031 143.468L251.051 142.742C251.197 136.738 250.803 131.782 249.67 129.483L249.624 129.392C248.241 126.726 248.095 123.761 249.319 122.094Z" fill="#434343"/>
<path fill-rule="evenodd" clip-rule="evenodd" d="M295.65 117.268C290.087 117.268 285.577 121.771 285.577 127.326C285.577 132.88 290.087 137.383 295.65 137.383C301.213 137.383 305.723 132.88 305.723 127.326C305.723 121.771 301.213 117.268 295.65 117.268ZM295.65 119.342C300.066 119.342 303.646 122.916 303.646 127.326C303.646 131.735 300.066 135.309 295.65 135.309C291.234 135.309 287.654 131.735 287.654 127.326C287.654 122.916 291.234 119.342 295.65 119.342Z" fill="#434343"/>
<path fill-rule="evenodd" clip-rule="evenodd" d="M241.734 160.32C242.171 160.005 242.774 160.078 243.124 160.478L243.312 160.714C243.438 160.873 243.587 161.057 243.759 161.265C244.252 161.861 244.823 162.527 245.467 163.245C247.307 165.298 249.352 167.351 251.543 169.265C256.805 173.861 262.045 176.907 266.912 177.694C267.313 177.759 267.64 178.052 267.748 178.443L267.77 178.532C267.805 178.681 267.846 178.898 267.884 179.187C268.087 180.718 268.054 182.828 267.636 185.551L267.598 185.793C267.382 187.146 267.711 188.094 268.804 189.766L269.35 190.59C270.143 191.8 270.535 192.54 270.827 193.524C271.249 194.939 271.233 196.437 270.72 198.12L270.713 198.151C270.588 198.844 269.557 208.855 269.065 213.159L269.02 213.549C267.711 224.785 266.141 235.272 264.115 245.205C261.444 258.3 258.205 269.207 254.286 277.351C249.563 287.168 243.948 292.75 237.262 293.249C236.69 293.292 236.192 292.863 236.149 292.292C236.106 291.721 236.535 291.224 237.107 291.181C242.812 290.755 247.877 285.772 252.281 276.728L252.414 276.453C256.245 268.491 259.44 257.733 262.08 244.791C264.038 235.191 265.57 225.055 266.85 214.215L267.042 212.563C267.521 208.309 268.561 198.245 268.725 197.547L268.73 197.527C269.431 195.23 269.076 193.949 267.523 191.591L267.159 191.043C265.735 188.893 265.224 187.494 265.547 185.466C265.946 182.972 266.002 181.062 265.854 179.701L265.843 179.607L265.651 179.567C260.686 178.516 255.544 175.47 250.416 171.034L250.175 170.825C247.916 168.852 245.813 166.74 243.92 164.628C243.377 164.023 242.883 163.453 242.442 162.927L242.171 162.601L241.701 162.977C240.794 163.707 239.638 164.667 238.205 165.889C237.292 166.668 236.295 167.081 235.168 167.209L234.997 167.227C234.296 167.292 233.698 167.254 232.499 167.116L232.353 167.099C229.522 166.767 228.356 166.992 226.829 168.701L226.75 168.791C225.769 169.908 220.757 177.925 213.107 190.512L210.684 194.506L209.693 196.142C207.369 199.984 204.955 203.989 202.523 208.038L196.574 217.963L195.05 220.514C194.756 221.005 194.119 221.167 193.626 220.874C193.152 220.592 192.984 219.991 193.235 219.508L194.982 216.58L198.131 211.321C201.265 206.094 204.41 200.867 207.416 195.896L211.118 189.786C219.063 176.708 224.075 168.692 225.187 167.425C226.36 166.084 227.627 165.324 229.052 165.031C229.996 164.836 230.746 164.839 232.115 164.985L232.88 165.072C235.006 165.304 235.84 165.179 236.856 164.312L237.725 163.574C238.781 162.682 239.668 161.949 240.399 161.361L240.942 160.928C241.074 160.824 241.195 160.73 241.305 160.645L241.663 160.372C241.693 160.35 241.717 160.333 241.734 160.32Z" fill="#434343"/>
<path fill-rule="evenodd" clip-rule="evenodd" d="M267.646 185.491C268.511 180.342 268.857 178.13 268.857 178.13C255.634 176.091 242.031 159.502 242.031 159.502C242.031 159.502 240.681 160.504 236.873 163.787C235.35 165.1 233.757 165.1 232.096 164.928C230.919 179.339 256.846 192.162 269.1 192.784C268.338 189.328 266.988 189.397 267.646 185.491Z" fill="#434343"/>
<path fill-rule="evenodd" clip-rule="evenodd" d="M192.397 203.142C196.275 202.652 199.69 203.55 202.413 206.093C202.832 206.484 202.854 207.14 202.462 207.558C202.07 207.976 201.413 207.998 200.994 207.607C198.756 205.518 195.959 204.782 192.658 205.199C189.662 205.578 186.406 206.885 183.105 208.832C181.697 209.662 180.377 210.552 179.185 211.442L178.882 211.671C178.686 211.82 178.501 211.963 178.329 212.1L178.08 212.298C177.992 212.37 177.913 212.435 177.843 212.493L177.701 212.612C177.267 212.986 176.611 212.937 176.236 212.504C175.862 212.07 175.91 211.416 176.345 211.042L176.488 210.92C176.549 210.87 176.622 210.81 176.707 210.74L177.038 210.476C177.311 210.259 177.613 210.027 177.942 209.781C179.191 208.849 180.572 207.917 182.049 207.046C185.573 204.968 189.076 203.562 192.397 203.142Z" fill="#434343"/>
<path fill-rule="evenodd" clip-rule="evenodd" d="M279.084 122.456L278.993 122.467C277.601 122.667 273.768 124.844 268.367 128.32L267.262 129.035C262.353 132.231 257.524 135.622 255.922 137.015L255.834 137.095C254.398 138.444 251.159 143.759 246.417 152.248L246.119 152.783C245.841 153.282 245.559 153.789 245.274 154.304L244.435 155.825C242.886 158.638 241.293 161.576 239.707 164.533L238.33 167.109C237.826 168.054 237.352 168.946 236.914 169.776L235.988 171.532C235.73 172.023 235.905 172.63 236.386 172.909L262.555 188.081L262.612 188.112C263.143 188.378 263.798 188.144 264.033 187.588L276.852 157.319L277.029 157.316C282.444 157.192 286.066 155.76 287.701 153.452C289.274 151.231 288.518 148.388 286.178 148.203L286.116 148.199C285.811 148.179 285.406 148.178 284.907 148.197L284.588 148.21L284.627 148.198C287.772 147.155 289.664 145.568 290.264 143.634C290.941 141.45 289.656 139.164 287.718 139.044L287.673 139.041C287.211 139.015 286.369 139.109 285.172 139.313L284.984 139.346L285.053 139.309C286.779 138.364 287.915 136.943 288.281 135.341C288.746 133.307 287.824 131.378 285.945 130.885L285.888 130.871C284.806 130.636 281.965 131.192 278.054 132.286L277.636 132.404L277.826 132.294C279.046 131.586 280.088 130.951 280.921 130.403C283.199 128.906 283.98 126.874 283.183 125.005C282.502 123.408 280.756 122.313 279.084 122.456ZM281.272 125.818C281.649 126.7 281.266 127.693 279.779 128.671L279.505 128.85C278.517 129.486 277.244 130.245 275.739 131.1L274.986 131.525C274.804 131.627 274.62 131.73 274.434 131.833C272.976 132.645 271.424 133.483 269.861 134.309L268.821 134.857L267.182 135.708L266.93 135.838C265.781 136.425 266.523 138.162 267.743 137.74L268.513 137.476C276.786 134.649 284.248 132.587 285.419 132.891C286.114 133.074 286.49 133.858 286.256 134.879C285.962 136.163 284.818 137.342 282.94 137.974L282.77 138.03L268.682 143.042C267.459 143.477 267.986 145.285 269.222 145.038L269.333 145.011L271.292 144.528L271.779 144.409C273.673 143.948 275.609 143.486 277.475 143.056L278.294 142.868L279.456 142.605C283.822 141.627 286.867 141.057 287.573 141.112C288.082 141.144 288.585 142.038 288.28 143.02C287.788 144.607 285.611 146.064 281.492 146.868L280.109 147.131C272.817 148.541 270.215 149.467 269.812 150.371C269.489 151.097 270.069 151.892 270.847 151.826L272.722 151.574C274.114 151.391 275.561 151.207 276.986 151.035L277.717 150.948L279.353 150.761C282.723 150.387 285.126 150.201 286.014 150.271C286.513 150.31 286.75 151.203 286.005 152.254C284.738 154.043 281.452 155.265 276.164 155.25L276.095 155.253C275.704 155.277 275.359 155.52 275.205 155.884L262.579 185.697L238.29 171.615L239.997 168.395C240.217 167.981 240.444 167.557 240.675 167.123L241.537 165.512C243.408 162.025 245.288 158.565 247.092 155.307L247.934 153.791L248.779 152.281C253.114 144.561 256.221 139.505 257.286 138.579C261.067 135.291 277.434 124.679 279.261 124.522C280.022 124.457 280.936 125.031 281.272 125.818Z" fill="#434343"/>
<path fill-rule="evenodd" clip-rule="evenodd" d="M221.252 253.337C226.81 252.913 231.638 257.077 232.024 262.621C232.448 268.171 228.278 272.991 222.709 273.377C221.381 273.458 220.122 273.321 218.995 272.946C218.45 272.765 218.156 272.178 218.338 271.634C218.519 271.091 219.107 270.798 219.651 270.979C220.511 271.265 221.507 271.373 222.574 271.308C226.984 271.002 230.29 267.182 229.952 262.772C229.646 258.369 225.819 255.068 221.405 255.405C220.969 255.436 220.532 255.498 220.094 255.592C219.534 255.712 218.982 255.355 218.861 254.795C218.741 254.236 219.098 253.684 219.659 253.564C220.191 253.451 220.723 253.375 221.252 253.337Z" fill="#434343"/>
<path fill-rule="evenodd" clip-rule="evenodd" d="M182.458 251.157V280.81C182.458 286.547 187.096 291.178 192.842 291.178H210.358C216.104 291.178 220.742 286.547 220.742 280.81V251.157H182.458ZM197.93 272.861C198.173 273.034 198.277 273.206 198.277 273.483C198.277 273.69 198.207 273.829 198.069 273.967C197.93 274.105 197.757 274.174 197.584 274.174C197.446 274.174 197.342 274.14 197.238 274.07L190.315 269.923C190.073 269.75 189.934 269.543 189.934 269.301C189.934 269.059 190.073 268.852 190.315 268.679L197.238 264.532C197.342 264.463 197.446 264.428 197.584 264.428C197.792 264.428 197.93 264.497 198.069 264.635C198.207 264.774 198.277 264.947 198.277 265.119C198.277 265.361 198.173 265.569 197.93 265.741L191.977 269.301L197.93 272.861ZM206.585 262.631L201.011 276.524C200.977 276.593 200.942 276.663 200.873 276.732C200.735 276.87 200.561 276.939 200.388 276.939C200.181 276.939 200.042 276.87 199.904 276.732C199.765 276.593 199.696 276.421 199.696 276.248C199.696 276.144 199.731 276.041 199.765 275.937L205.338 262.043C205.373 261.974 205.408 261.905 205.477 261.836C205.615 261.698 205.788 261.629 205.961 261.629C206.169 261.629 206.308 261.698 206.446 261.836C206.585 261.974 206.654 262.147 206.654 262.32C206.654 262.458 206.619 262.562 206.585 262.631ZM216 269.923L209.077 274.07C208.973 274.14 208.869 274.174 208.731 274.174C208.523 274.174 208.384 274.105 208.246 273.967C208.108 273.829 208.038 273.656 208.038 273.483C208.038 273.241 208.142 273.034 208.384 272.861L214.338 269.301L208.384 265.741C208.142 265.569 208.038 265.396 208.038 265.119C208.038 264.912 208.108 264.774 208.246 264.635C208.384 264.497 208.558 264.428 208.731 264.428C208.869 264.428 208.973 264.463 209.077 264.532L216 268.679C216.242 268.852 216.381 269.059 216.381 269.301C216.415 269.543 216.277 269.785 216 269.923Z" fill="#434343"/>
<path fill-rule="evenodd" clip-rule="evenodd" d="M567.485 291.005C568.058 291.005 568.523 291.47 568.523 292.042C568.523 292.594 568.091 293.046 567.546 293.077L567.485 293.079H1.03846C0.464935 293.079 0 292.615 0 292.042C0 291.49 0.432318 291.039 0.977444 291.007L1.03846 291.005H567.485Z" fill="#434343"/>
<path fill-rule="evenodd" clip-rule="evenodd" d="M295.511 144.813L293.608 115.229L255.392 117.683L256.707 137.694C260.1 134.791 276.784 123.662 279.207 123.455C281.631 123.247 284.538 126.773 280.384 129.503C276.231 132.233 267.438 136.726 267.438 136.726C274.742 134.169 283.984 131.404 285.715 131.853C288.346 132.544 288.173 137.383 283.154 138.972L269.065 143.984C269.065 143.984 285.473 139.871 287.688 140.044C289.904 140.217 291.842 145.954 281.527 147.889C271.211 149.859 270.796 150.758 270.796 150.758C270.796 150.758 283.5 148.961 286.131 149.202C288.761 149.444 288.831 156.287 276.196 156.253L276.127 156.426L285.854 155.804C291.531 155.458 295.892 150.516 295.511 144.813Z" fill="#434343"/>
</svg>
